<svg width="60" height="60" viewBox="0 0 60 60" fill="none" xmlns="http://www.w3.org/2000/svg">
<path opacity="0.5" d="M52.2823 14.722C53.125 15.9831 53.125 17.7387 53.125 21.2498V53.1247H54.375C55.4105 53.1247 56.25 53.9642 56.25 54.9997C56.25 56.0354 55.4105 56.8747 54.375 56.8747H4.375C3.33948 56.8747 2.5 56.0354 2.5 54.9997C2.5 53.9642 3.33948 53.1247 4.375 53.1247H5.625V21.2498C5.625 17.7387 5.625 15.9831 6.46765 14.722C6.83245 14.176 7.3012 13.7073 7.84715 13.3425C8.9502 12.6054 14.189 12.513 16.8926 12.5015C16.8823 13.2299 16.8824 13.9912 16.8825 14.7761L16.8825 14.9998V18.1248H10.625C9.58948 18.1248 8.75 18.9643 8.75 19.9998C8.75 21.0353 9.58948 21.8748 10.625 21.8748H16.8825V25.6247H10.625C9.58948 25.6247 8.75 26.4642 8.75 27.4997C8.75 28.5354 9.58948 29.3747 10.625 29.3747H16.8825V33.1247H10.625C9.58948 33.1247 8.75 33.9642 8.75 34.9997C8.75 36.0354 9.58948 36.8747 10.625 36.8747H16.8825V53.1247H41.8823V36.8747H48.125C49.1605 36.8747 50 36.0354 50 34.9997C50 33.9642 49.1605 33.1247 48.125 33.1247H41.8823V29.3747H48.125C49.1605 29.3747 50 28.5354 50 27.4997C50 26.4642 49.1605 25.6247 48.125 25.6247H41.8823V21.8748H48.125C49.1605 21.8748 50 21.0353 50 19.9998C50 18.9643 49.1605 18.1248 48.125 18.1248H41.8823V14.9998V14.7761C41.8825 13.9912 41.8825 13.2299 41.8723 12.5015C44.5758 12.513 49.7998 12.6054 50.9028 13.3425C51.4488 13.7073 51.9175 14.176 52.2823 14.722Z" fill="#1C1D21"/>
<path fill-rule="evenodd" clip-rule="evenodd" d="M26.875 5H31.875C36.589 5 38.946 5 40.4105 6.46448C41.875 7.92893 41.875 10.286 41.875 15V53.125H45.625H53.125H54.375C55.4105 53.125 56.25 53.9645 56.25 55C56.25 56.0355 55.4105 56.875 54.375 56.875H4.375C3.33948 56.875 2.5 56.0355 2.5 55C2.5 53.9645 3.33948 53.125 4.375 53.125H5.625H13.125H16.875V15C16.875 10.286 16.875 7.92893 18.3395 6.46448C19.8039 5 22.161 5 26.875 5ZM29.375 45.625C30.4105 45.625 31.25 46.4645 31.25 47.5V53.125H27.5V47.5C27.5 46.4645 28.3395 45.625 29.375 45.625ZM24.375 35C23.3395 35 22.5 35.8395 22.5 36.875C22.5 37.9105 23.3395 38.75 24.375 38.75H34.375C35.4105 38.75 36.25 37.9105 36.25 36.875C36.25 35.8395 35.4105 35 34.375 35H24.375ZM22.5 29.375C22.5 28.3395 23.3395 27.5 24.375 27.5H34.375C35.4105 27.5 36.25 28.3395 36.25 29.375C36.25 30.4105 35.4105 31.25 34.375 31.25H24.375C23.3395 31.25 22.5 30.4105 22.5 29.375ZM24.375 21.25C23.3395 21.25 22.5 22.0895 22.5 23.125C22.5 24.1605 23.3395 25 24.375 25H34.375C35.4105 25 36.25 24.1605 36.25 23.125C36.25 22.0895 35.4105 21.25 34.375 21.25H24.375ZM22.5 15.625C22.5 14.5895 23.3395 13.75 24.375 13.75H34.375C35.4105 13.75 36.25 14.5895 36.25 15.625C36.25 16.6605 35.4105 17.5 34.375 17.5H24.375C23.3395 17.5 22.5 16.6605 22.5 15.625Z" fill="#1C1D21"/>
</svg>
