<svg width="60" height="61" viewBox="0 0 60 61" fill="none" xmlns="http://www.w3.org/2000/svg">
<path opacity="0.5" fill-rule="evenodd" clip-rule="evenodd" d="M16.25 4.875C16.25 3.83948 15.4105 3 14.375 3C13.3395 3 12.5 3.83948 12.5 4.875V54.875C12.5 55.9105 13.3395 56.75 14.375 56.75C15.4105 56.75 16.25 55.9105 16.25 54.875V34.5V9.5V4.875Z" fill="#1C1D21"/>
<path d="M33.3715 9.97343L32.8623 9.76978C28.9553 8.20696 24.678 7.81426 20.5517 8.63953L16.25 9.49986V34.4998L20.5517 33.6395C24.678 32.8143 28.9553 33.207 32.8623 34.7698C37.0963 36.4633 41.756 36.7795 46.18 35.6735L46.716 35.5395C48.2787 35.149 49.375 33.7448 49.375 32.1343V13.7166C49.375 11.7652 47.5412 10.3333 45.648 10.8066C41.57 11.8261 37.2743 11.5346 33.3715 9.97343Z" fill="#1C1D21"/>
</svg>
