<svg width="60" height="61" viewBox="0 0 60 61" fill="none" xmlns="http://www.w3.org/2000/svg">
<path fill-rule="evenodd" clip-rule="evenodd" d="M36.1172 41.4422L50.7342 26.869C52.8395 24.7703 53.892 23.7209 54.4462 22.3864C55.0007 21.052 55.0007 19.568 55.0007 16.5999V15.1819C55.0007 10.6178 55.0007 8.33577 53.5785 6.91787C52.1565 5.5 49.8675 5.5 45.2897 5.5H43.8675C40.8905 5.5 39.402 5.5 38.0635 6.05275C36.725 6.6055 35.6725 7.65487 33.5675 9.75364L18.9503 24.3269C16.4905 26.7792 14.9653 28.3 14.3746 29.7687C14.188 30.2327 14.0947 30.6917 14.0947 31.173C14.0947 33.1782 15.7132 34.792 18.9503 38.0192L19.3853 38.453L24.4816 33.2807C25.2085 32.543 26.3955 32.5342 27.1332 33.261C27.8707 33.9877 27.8795 35.175 27.1527 35.9127L22.041 41.1007L22.3836 41.4422C25.6207 44.6697 27.2392 46.2832 29.2505 46.2832C29.6947 46.2832 30.12 46.2044 30.5477 46.0469C32.056 45.4915 33.5955 43.9565 36.1172 41.4422ZM42.9842 24.328C41.088 26.2185 38.0137 26.2185 36.1175 24.328C34.2212 22.4375 34.2212 19.3724 36.1175 17.4818C38.0137 15.5913 41.088 15.5913 42.9842 17.4818C44.8805 19.3724 44.8805 22.4375 42.9842 24.328Z" fill="#1C1D21"/>
<g opacity="0.5">
<path d="M22.5857 15.4076L16.2279 21.7464C15.0592 22.9115 13.9872 23.9802 13.1406 24.9464C12.5969 25.5667 12.0536 26.246 11.5934 26.9962L11.5315 26.9345C11.4139 26.8172 11.355 26.7585 11.296 26.7012C10.1909 25.629 8.89103 24.7765 7.46591 24.1894C7.38976 24.158 7.31246 24.1274 7.15786 24.0661L6.21123 23.691C4.92883 23.1829 4.58706 21.532 5.56286 20.5591C8.36338 17.7671 11.7258 14.4148 13.3485 13.7415C14.7796 13.1478 16.3256 12.9502 17.8166 13.1705C19.1828 13.3724 20.4752 14.0742 22.5857 15.4076Z" fill="#1C1D21"/>
<path d="M33.4414 48.7831C33.9537 49.3031 34.2939 49.6704 34.6017 50.0629C35.0074 50.5806 35.3704 51.1306 35.6867 51.7074C36.0427 52.3566 36.3192 53.0501 36.8722 54.4371C37.3222 55.5664 38.8177 55.8649 39.6862 54.9989L39.8962 54.7894C42.6966 51.9971 46.0589 48.6449 46.7341 47.0271C47.3299 45.6001 47.5279 44.0589 47.3069 42.5724C47.1044 41.2104 46.4009 39.9221 45.0636 37.8184L38.6847 44.1784C37.4894 45.3699 36.3937 46.4626 35.4027 47.3184C34.8087 47.8314 34.1589 48.3441 33.4414 48.7831Z" fill="#1C1D21"/>
</g>
</svg>
