<svg width="1919" height="727" viewBox="0 0 1919 727" fill="none" xmlns="http://www.w3.org/2000/svg">
<path fill-rule="evenodd" clip-rule="evenodd" d="M191.832 0.674308H0.671524V192.627H172.028L191.832 172.741V0.674308ZM212.165 192.627L192.616 172.997V0.674308H383.776V192.627H212.165ZM192.616 212.752L211.873 193.414H383.776V385.367H192.616V212.752ZM172.319 193.414L191.832 213.008V385.367H0.671524V193.414H172.319ZM0 0V192.74V193.302V385.479V386.041V578.219V578.781V770.959V771.52V963.698V964.26V1157H191.944H192.504H383.888H384.448H575.832H576.391H767.776H768.336H959.72H960.28H1151.66H1152.22H1343.61H1344.17H1535.55H1536.11H1727.5H1728.06H1920L1920 964.26V771.52V770.959V578.219V386.041V193.302V192.74V0H1728.06H1727.5H1536.11H1535.55H1344.17H1343.61H1152.22H1151.66H960.28H959.72H768.336H767.776H576.391H575.832H384.448H383.888H192.504H191.944H0ZM384.559 0.674308H575.72V192.627H384.559V0.674308ZM767.664 0.674308H576.503V192.627H767.664V0.674308ZM768.448 0.674308H959.608V192.627H768.448V0.674308ZM1151.55 0.674308H960.391V192.627H1151.55V0.674308ZM1152.34 0.674308H1343.5V192.627H1152.34V0.674308ZM1535.44 0.674308H1344.28V192.627H1535.44V0.674308ZM1536.22 0.674308H1727.38V192.627H1536.22V0.674308ZM1919.33 0.674308H1728.17V192.627H1919.33V0.674308ZM384.559 193.414H575.72V385.367H384.559V193.414ZM767.664 193.414H576.503V385.367H767.664V366.059V193.414ZM768.448 385.367V366.368V193.414H959.608V385.367H768.448ZM768.448 406.07V386.153H788.151H959.608V578.106H768.448V406.07ZM747.653 386.153L767.664 386.219V406.379V578.106H576.503V386.153H747.653ZM1151.55 193.414H960.391V385.367H1151.55V193.414ZM1152.34 193.414H1343.5V385.367H1152.34V193.414ZM1535.44 193.414H1344.28V385.367H1535.44V193.414ZM1536.22 193.414H1727.38V332.113L1727.06 332.439L1674.35 385.367H1536.22V193.414ZM1673.57 386.153H1536.22V559.196L1536.87 558.551L1556.34 578.106H1727.38V440.326L1727.06 439.999L1674.02 386.74L1673.5 386.219L1673.57 386.153ZM1727.38 439.284L1674.54 386.219L1674.6 386.153H1707.33L1707.26 386.219L1727.38 406.423V439.284ZM1728.17 439.928V578.106H1919.33V386.153H1781.59L1781.65 386.219L1781.14 386.74L1728.17 439.928ZM1780.55 386.153L1780.62 386.219L1728.17 438.887V406.026L1747.89 386.219L1747.83 386.153H1780.55ZM1780.81 385.367H1919.33V193.414H1728.17V332.51L1780.81 385.367ZM1728.17 333.552L1779.77 385.367H1747.04L1728.17 366.412V333.552ZM1727.38 333.155L1675.39 385.367H1708.11L1727.38 366.016V333.155ZM1536.22 598.704L1536.87 599.349L1557.18 578.95L1557.12 578.893H1727.38V770.846H1536.22V598.704ZM1516.61 578.893L1516.55 578.95L1535.44 597.917V770.846H1344.28V578.893H1516.61ZM1535.44 559.983L1517.39 578.106H1344.28V386.153H1535.44V559.983ZM0.671524 386.153H191.832V578.106H0.671524V386.153ZM383.776 386.153H192.616V578.106H383.776V386.153ZM384.559 386.153H575.72V578.106H384.559V386.153ZM1151.55 386.153H960.392V578.106H1151.55V386.153ZM1152.34 386.153H1343.5V578.106H1152.34V386.153ZM0.671524 578.893H191.832V770.846H0.671524V578.893ZM383.776 578.893H192.616V770.846H330.958L330.709 770.596L331.228 770.076L383.776 717.309V578.893ZM383.776 718.351L331.746 770.596L331.995 770.846H364.72L364.471 770.596L383.776 751.212V718.351ZM384.559 750.425V717.564L384.786 717.337L437.825 770.596L437.577 770.846H404.852L405.101 770.596L384.786 750.198L384.559 750.425ZM384.559 790.768L384.786 790.995L404.068 771.633H436.793L384.786 823.856L384.559 823.628V790.768ZM365.504 771.633L383.776 789.981V822.842L332.778 771.633H365.504ZM331.741 771.633H192.616V963.586H383.776V823.884L331.741 771.633ZM384.559 824.67V963.586H575.72V771.633H437.83L385.304 824.377L384.786 824.898L384.559 824.67ZM438.614 770.846H575.72V578.893H384.559V716.523L384.786 716.295L385.304 716.816L438.344 770.076L438.863 770.596L438.614 770.846ZM767.664 578.893H576.503V770.846H767.664V578.893ZM768.448 578.893H959.608V770.846H768.448V578.893ZM1151.55 578.893H960.391V770.846H1151.55V578.893ZM1152.34 578.893H1343.5V770.846H1152.34V578.893ZM1919.33 578.893H1728.17V770.846H1919.33V578.893ZM0.671524 771.633H191.832V963.586H0.671524V771.633ZM767.664 771.633H576.503V963.586H767.664V771.633ZM768.448 771.633H959.608V963.586H768.448V771.633ZM1151.55 771.633H960.391V963.586H1151.55V771.633ZM1152.34 771.633H1343.5V963.586H1152.34V771.633ZM1535.44 771.633H1344.28V963.586H1535.44V771.633ZM1536.22 771.633H1727.38V963.586H1536.22V771.633ZM1919.33 771.633H1728.17V963.586H1919.33V771.633ZM0.671524 964.373H191.832V1156.33H0.671524V964.373ZM383.776 964.373H192.616V1156.33H383.776V964.373ZM384.559 964.373H575.72V1156.33H384.559V964.373ZM767.664 964.373H576.503V1156.33H767.664V964.373ZM768.448 964.373H959.608V1156.33H768.448V964.373ZM1151.55 964.373H960.391V1156.33H1151.55V964.373ZM1152.34 964.373H1343.5V1156.33H1152.34V964.373ZM1535.44 964.373H1344.28V1156.33H1535.44V964.373ZM1536.22 964.373H1727.38V1156.33H1536.22V964.373ZM1919.33 964.373H1728.17V1156.33H1919.33V964.373Z" fill="black" fill-opacity="0.12"/>
</svg>
